<svg width="42" height="42" viewBox="0 0 42 42" fill="none" xmlns="http://www.w3.org/2000/svg">
<path d="M1 21C1 11.5726 1 6.85684 3.92842 3.92842C6.85684 1 11.5705 1 21 1C30.4274 1 35.1432 1 38.0716 3.92842C41 6.85684 41 11.5705 41 21C41 30.4274 41 35.1432 38.0716 38.0716C35.1432 41 30.4295 41 21 41C11.5726 41 6.85684 41 3.92842 38.0716C1 35.1432 1 30.4295 1 21Z" stroke="white" stroke-width="1.25" stroke-linecap="round" stroke-linejoin="round"/>
<path d="M31.3727 12.6334H25.1727C24.1169 12.6334 23.1039 13.0508 22.3546 13.7946C21.6053 14.5383 21.1805 15.5482 21.1727 16.6039L20.9916 40.8461M16.9622 25.2145H27.0737" stroke="white" stroke-width="1.25" stroke-linecap="round" stroke-linejoin="round"/>
</svg>
