<svg width="42" height="42" viewBox="0 0 42 42" fill="none" xmlns="http://www.w3.org/2000/svg">
<path d="M31 9.57143H33.8571M12.4286 1H29.5714C32.6025 1 35.5094 2.20408 37.6527 4.34735C39.7959 6.49062 41 9.39753 41 12.4286V29.5714C41 32.6025 39.7959 35.5094 37.6527 37.6527C35.5094 39.7959 32.6025 41 29.5714 41H12.4286C9.39753 41 6.49062 39.7959 4.34735 37.6527C2.20408 35.5094 1 32.6025 1 29.5714V12.4286C1 9.39753 2.20408 6.49062 4.34735 4.34735C6.49062 2.20408 9.39753 1 12.4286 1ZM21 29.5714C18.7267 29.5714 16.5465 28.6684 14.9391 27.0609C13.3316 25.4535 12.4286 23.2733 12.4286 21C12.4286 18.7267 13.3316 16.5465 14.9391 14.9391C16.5465 13.3316 18.7267 12.4286 21 12.4286C23.2733 12.4286 25.4535 13.3316 27.0609 14.9391C28.6684 16.5465 29.5714 18.7267 29.5714 21C29.5714 23.2733 28.6684 25.4535 27.0609 27.0609C25.4535 28.6684 23.2733 29.5714 21 29.5714Z" stroke="white" stroke-width="1.33333"/>
</svg>
