<svg width="42" height="42" viewBox="0 0 42 42" fill="none" xmlns="http://www.w3.org/2000/svg">
<path d="M12.1111 30.7223V18.2223M21 30.7223V24.3334M21 24.3334V18.2223M21 24.3334C21 21.4712 23.7155 19.8889 26.3333 19.8889C29.8889 19.8889 29.8889 22.9445 29.8889 26.2778V30.7223M12.1111 11.2778V12.3889" stroke="white" stroke-width="1.25" stroke-linecap="round" stroke-linejoin="round"/>
<path d="M1 15.2222C1 10.2444 1 7.75556 1.96889 5.85333C2.82108 4.18086 4.18086 2.82108 5.85333 1.96889C7.75556 1 10.2444 1 15.2222 1H26.7778C31.7556 1 34.2444 1 36.1467 1.96889C37.8191 2.82108 39.1789 4.18086 40.0311 5.85333C41 7.75556 41 10.2444 41 15.2222V26.7778C41 31.7556 41 34.2444 40.0311 36.1467C39.1789 37.8191 37.8191 39.1789 36.1467 40.0311C34.2444 41 31.7556 41 26.7778 41H15.2222C10.2444 41 7.75556 41 5.85333 40.0311C4.18086 39.1789 2.82108 37.8191 1.96889 36.1467C1 34.2444 1 31.7556 1 26.7778V15.2222Z" stroke="white" stroke-width="1.25" stroke-linecap="round" stroke-linejoin="round"/>
</svg>
